# xmcd
#
# Track frame offsets: 
#        150
#        16388
#        35170
#        53480
#        72289
#        93244
#        114603
#        132986
#        150200
#        168251
#        186835
#        204845
#        225845
#        241996
#        261181
#        276085
#        293037
#        309564
#
# Disc length: 4388 seconds
#
# Revision: 0
# Processed by: cddbd v1.5.2PL0 Copyright (c) Steve Scherf et al.
# Submitted via: ExactAudioCopy v1.0b3
#
DISCID=ea112212
DTITLE=Demis Roussos - Voice And Vision
DYEAR=1989
DGENRE=Pop
TTITLE0=On Ecrit Sur Les Murs
TTITLE1=Amico Sincero
TTITLE2=Qui Plus Que Moi
TTITLE3=Petite Fille
TTITLE4=Wanna Die The Way I Love You
TTITLE5=Young Love
TTITLE6=Viso Di Donna
TTITLE7=Incontrarsi
TTITLE8=Comincero Da Te
TTITLE9=Magdalena
TTITLE10=Vraiment Bleu
TTITLE11=Piano
TTITLE12=Poesie
TTITLE13=Billy
TTITLE14=Toutes Les Femmes s'appellent Marie
TTITLE15=La Vie A L'Envers
TTITLE16=Anna
TTITLE17=Photo-Fixe 
EXTD=
EXTT0=
EXTT1=
EXTT2=
EXTT3=
EXTT4=
EXTT5=
EXTT6=
EXTT7=
EXTT8=
EXTT9=
EXTT10=
EXTT11=
EXTT12=
EXTT13=
EXTT14=
EXTT15=
EXTT16=
EXTT17=
PLAYORDER=
